<svg width="322" height="388" viewBox="0 0 322 388" fill="none" xmlns="http://www.w3.org/2000/svg">
  <mask id="mask0" style="mask-type:alpha" maskUnits="userSpaceOnUse" x="0" y="0" width="322" height="388">
    <rect x="0.388889" y="0.388889" width="321.222" height="386.971" fill="url(#paint0_linear)" stroke="#CF8F7D" stroke-width="0.777778"></rect>
  </mask>
  <g mask="url(#mask0)">
    <path vector-effect="non-scaling-stroke" d="M323.031 145.661V249.203C323.031 307.562 280.547 345.693 237.682 378.384C203.99 404.079 161.083 448.115 161.083 492.985V599.743" stroke="url(#paint1_linear)"></path>
    <path vector-effect="non-scaling-stroke" d="M323.031 43.7078V147.25C323.031 205.609 280.547 243.74 237.682 276.431C203.99 302.126 161.083 346.162 161.083 391.032V497.79" stroke="url(#paint2_linear)"></path>
    <path vector-effect="non-scaling-stroke" d="M323.031 -58.2448V45.297C323.031 103.657 280.547 141.787 237.682 174.478C203.99 200.173 161.083 244.21 161.083 289.079V395.837" stroke="url(#paint3_linear)"></path>
    <path vector-effect="non-scaling-stroke" d="M323.031 -160.198V-56.6558C323.031 1.70372 280.547 39.8342 237.682 72.5255C203.99 98.2205 161.083 142.257 161.083 187.126V293.885" stroke="url(#paint4_linear)"></path>
    <path vector-effect="non-scaling-stroke" d="M323.031 -262.151V-158.609C323.031 -100.249 280.547 -62.1188 237.682 -29.4275C203.99 -3.73248 161.083 40.3039 161.083 85.1733V191.932" stroke="url(#paint5_linear)"></path>
    <path vector-effect="non-scaling-stroke" d="M323.031 -364.104V-260.562C323.031 -202.202 280.547 -164.072 237.682 -131.381C203.99 -105.686 161.083 -61.6492 161.083 -16.7798V89.9786" stroke="url(#paint6_linear)"></path>
    <path vector-effect="non-scaling-stroke" d="M-1.00635 145.661V249.202C-1.00635 307.562 41.4775 345.692 84.3428 378.384C118.035 404.079 160.942 448.115 160.942 492.984V599.743" stroke="url(#paint7_linear)"></path>
    <path vector-effect="non-scaling-stroke" d="M-1.00635 43.7078V147.25C-1.00635 205.609 41.4775 243.74 84.3428 276.431C118.035 302.126 160.942 346.162 160.942 391.032V497.79" stroke="url(#paint8_linear)"></path>
    <path vector-effect="non-scaling-stroke" d="M-1.00635 -58.2452V45.2966C-1.00635 103.656 41.4775 141.787 84.3428 174.478C118.035 200.173 160.942 244.209 160.942 289.079V395.837" stroke="url(#paint9_linear)"></path>
    <path vector-effect="non-scaling-stroke" d="M-1.00635 -160.198V-56.6558C-1.00635 1.70372 41.4775 39.8342 84.3428 72.5255C118.035 98.2205 160.942 142.257 160.942 187.126V293.885" stroke="url(#paint10_linear)"></path>
    <path vector-effect="non-scaling-stroke" d="M-1.00635 -262.151V-158.609C-1.00635 -100.25 41.4775 -62.1192 84.3428 -29.4279C118.035 -3.73284 160.942 40.3036 160.942 85.173V191.931" stroke="url(#paint11_linear)"></path>
    <path vector-effect="non-scaling-stroke" d="M-1.00635 -364.103V-260.562C-1.00635 -202.202 41.4775 -164.072 84.3428 -131.38C118.035 -105.685 160.942 -61.6488 160.942 -16.7794V89.9789" stroke="url(#paint12_linear)"></path>
    <rect x="320.994" y="154.963" width="6.0375" height="24.15" fill="#051936"></rect>
    <rect x="320.994" y="249.55" width="6.0375" height="24.15" fill="#051936"></rect>
    <rect x="-19" y="25.2042" width="20" height="240" fill="#051936"></rect>
    <rect x="321" y="25.2042" width="20" height="240" fill="#051936"></rect>
  </g>
  <defs>
    <linearGradient id="paint0_linear" x1="161" y1="24.7042" x2="161" y2="385.894" gradientUnits="userSpaceOnUse">
      <stop offset="0.20435" stop-color="#D9D9D9" stop-opacity="0"></stop>
      <stop offset="1" stop-color="#D9D9D9"></stop>
    </linearGradient>
    <linearGradient id="paint1_linear" x1="365.069" y1="275.714" x2="161.073" y2="482.803" gradientUnits="userSpaceOnUse">
      <stop offset="0" stop-color="#CF8F7D"></stop>
      <stop offset="0.286458" stop-color="#CF8F7D" stop-opacity="0.3"></stop>
      <stop offset="0.534409" stop-color="#E0B196"></stop>
      <stop offset="0.760417" stop-color="#CF8F7D" stop-opacity="0.3"></stop>
      <stop offset="1" stop-color="#CF8F7D"></stop>
    </linearGradient>
    <linearGradient id="paint2_linear" x1="365.069" y1="173.761" x2="161.073" y2="380.85" gradientUnits="userSpaceOnUse">
      <stop offset="0" stop-color="#CF8F7D"></stop>
      <stop offset="0.286458" stop-color="#CF8F7D" stop-opacity="0.3"></stop>
      <stop offset="0.534409" stop-color="#E0B196"></stop>
      <stop offset="0.760417" stop-color="#CF8F7D" stop-opacity="0.3"></stop>
      <stop offset="1" stop-color="#CF8F7D"></stop>
    </linearGradient>
    <linearGradient id="paint3_linear" x1="365.069" y1="71.8082" x2="161.073" y2="278.898" gradientUnits="userSpaceOnUse">
      <stop offset="0" stop-color="#CF8F7D"></stop>
      <stop offset="0.286458" stop-color="#CF8F7D" stop-opacity="0.3"></stop>
      <stop offset="0.534409" stop-color="#E0B196"></stop>
      <stop offset="0.760417" stop-color="#CF8F7D" stop-opacity="0.3"></stop>
      <stop offset="1" stop-color="#CF8F7D"></stop>
    </linearGradient>
    <linearGradient id="paint4_linear" x1="365.069" y1="-30.1446" x2="161.073" y2="176.945" gradientUnits="userSpaceOnUse">
      <stop offset="0" stop-color="#CF8F7D"></stop>
      <stop offset="0.286458" stop-color="#CF8F7D" stop-opacity="0.3"></stop>
      <stop offset="0.534409" stop-color="#E0B196"></stop>
      <stop offset="0.760417" stop-color="#CF8F7D" stop-opacity="0.3"></stop>
      <stop offset="1" stop-color="#CF8F7D"></stop>
    </linearGradient>
    <linearGradient id="paint5_linear" x1="365.069" y1="-132.098" x2="161.073" y2="74.9918" gradientUnits="userSpaceOnUse">
      <stop offset="0" stop-color="#CF8F7D"></stop>
      <stop offset="0.286458" stop-color="#CF8F7D" stop-opacity="0.3"></stop>
      <stop offset="0.534409" stop-color="#E0B196"></stop>
      <stop offset="0.760417" stop-color="#CF8F7D" stop-opacity="0.3"></stop>
      <stop offset="1" stop-color="#CF8F7D"></stop>
    </linearGradient>
    <linearGradient id="paint6_linear" x1="365.069" y1="-234.051" x2="161.073" y2="-26.9613" gradientUnits="userSpaceOnUse">
      <stop offset="0" stop-color="#CF8F7D"></stop>
      <stop offset="0.286458" stop-color="#CF8F7D" stop-opacity="0.3"></stop>
      <stop offset="0.534409" stop-color="#E0B196"></stop>
      <stop offset="0.760417" stop-color="#CF8F7D" stop-opacity="0.3"></stop>
      <stop offset="1" stop-color="#CF8F7D"></stop>
    </linearGradient>
    <linearGradient id="paint7_linear" x1="-43.0445" y1="275.714" x2="160.951" y2="482.803" gradientUnits="userSpaceOnUse">
      <stop offset="0" stop-color="#CF8F7D"></stop>
      <stop offset="0.286458" stop-color="#CF8F7D" stop-opacity="0.3"></stop>
      <stop offset="0.534409" stop-color="#E0B196"></stop>
      <stop offset="0.760417" stop-color="#CF8F7D" stop-opacity="0.3"></stop>
      <stop offset="1" stop-color="#CF8F7D"></stop>
    </linearGradient>
    <linearGradient id="paint8_linear" x1="-43.0445" y1="173.761" x2="160.951" y2="380.85" gradientUnits="userSpaceOnUse">
      <stop offset="0" stop-color="#CF8F7D"></stop>
      <stop offset="0.286458" stop-color="#CF8F7D" stop-opacity="0.3"></stop>
      <stop offset="0.534409" stop-color="#E0B196"></stop>
      <stop offset="0.760417" stop-color="#CF8F7D" stop-opacity="0.3"></stop>
      <stop offset="1" stop-color="#CF8F7D"></stop>
    </linearGradient>
    <linearGradient id="paint9_linear" x1="-43.0445" y1="71.8078" x2="160.951" y2="278.897" gradientUnits="userSpaceOnUse">
      <stop offset="0" stop-color="#CF8F7D"></stop>
      <stop offset="0.286458" stop-color="#CF8F7D" stop-opacity="0.3"></stop>
      <stop offset="0.534409" stop-color="#E0B196"></stop>
      <stop offset="0.760417" stop-color="#CF8F7D" stop-opacity="0.3"></stop>
      <stop offset="1" stop-color="#CF8F7D"></stop>
    </linearGradient>
    <linearGradient id="paint10_linear" x1="-43.0445" y1="-30.1446" x2="160.951" y2="176.945" gradientUnits="userSpaceOnUse">
      <stop offset="0" stop-color="#CF8F7D"></stop>
      <stop offset="0.286458" stop-color="#CF8F7D" stop-opacity="0.3"></stop>
      <stop offset="0.534409" stop-color="#E0B196"></stop>
      <stop offset="0.760417" stop-color="#CF8F7D" stop-opacity="0.3"></stop>
      <stop offset="1" stop-color="#CF8F7D"></stop>
    </linearGradient>
    <linearGradient id="paint11_linear" x1="-43.0445" y1="-132.098" x2="160.951" y2="74.9914" gradientUnits="userSpaceOnUse">
      <stop offset="0" stop-color="#CF8F7D"></stop>
      <stop offset="0.286458" stop-color="#CF8F7D" stop-opacity="0.3"></stop>
      <stop offset="0.534409" stop-color="#E0B196"></stop>
      <stop offset="0.760417" stop-color="#CF8F7D" stop-opacity="0.3"></stop>
      <stop offset="1" stop-color="#CF8F7D"></stop>
    </linearGradient>
    <linearGradient id="paint12_linear" x1="-43.0445" y1="-234.05" x2="160.951" y2="-26.9609" gradientUnits="userSpaceOnUse">
      <stop offset="0" stop-color="#CF8F7D"></stop>
      <stop offset="0.286458" stop-color="#CF8F7D" stop-opacity="0.3"></stop>
      <stop offset="0.534409" stop-color="#E0B196"></stop>
      <stop offset="0.760417" stop-color="#CF8F7D" stop-opacity="0.3"></stop>
      <stop offset="1" stop-color="#CF8F7D"></stop>
    </linearGradient>
  </defs>
</svg> 